<svg width="57" height="49" viewBox="0 0 57 49" fill="none" xmlns="http://www.w3.org/2000/svg">
<path d="M0 4.08333C0 1.82474 1.81942 0 4.07143 0H52.9286C55.1806 0 57 1.82474 57 4.08333C57 6.34193 55.1806 8.16667 52.9286 8.16667H4.07143C1.81942 8.16667 0 6.34193 0 4.08333ZM0 24.5C0 22.2414 1.81942 20.4167 4.07143 20.4167H52.9286C55.1806 20.4167 57 22.2414 57 24.5C57 26.7586 55.1806 28.5833 52.9286 28.5833H4.07143C1.81942 28.5833 0 26.7586 0 24.5ZM57 44.9167C57 47.1753 55.1806 49 52.9286 49H4.07143C1.81942 49 0 47.1753 0 44.9167C0 42.6581 1.81942 40.8333 4.07143 40.8333H52.9286C55.1806 40.8333 57 42.6581 57 44.9167Z" fill="#2460B0"/>
</svg>
